<svg viewBox="0 0 64 72" fill="none" xmlns="http://www.w3.org/2000/svg">
  <path d="M55.2 13.8C55.1 13.2 54.6 12.9 54.2 12.9C53.8 12.9 45.6 12.6 45.6 12.6C45.6 12.6 39 6.2 38.3 5.5C37.6 4.8 36.3 5 35.8 5.2C35.8 5.2 34.5 5.6 32.4 6.3C32 4.9 31.3 3.2 30.2 1.6C27.3 -2.6 23.1 0.4 23.1 0.4C22 1.4 21 2.8 20.2 4.4C17.5 3.6 14.8 2.8 14.8 2.8C14.8 2.8 9.8 17 9.5 17.7C9.2 18.4 9.9 18.6 9.9 18.6L22.9 22.3L22.9 22.3C23.6 22.5 30.5 24.4 32.2 25L24.2 55.4L32.5 57.7L43.1 20.8C43.5 19.5 43.7 18.5 43.7 18.5C43.7 18.5 47.5 19.5 50.3 20.2C51.4 20.5 51.8 20.6 52.1 20.6C52.9 20.6 53.2 20 53.3 19.6L55.2 13.8Z" fill="currentColor"/>
  <path d="M32 32L28 48L36 50L40 34L32 32Z" fill="currentColor"/>
</svg>
