<svg width="142" height="142" viewBox="0 0 142 142" fill="none" xmlns="http://www.w3.org/2000/svg">
<path d="M114.039 59.031C110.39 53.5499 103.302 51.5193 97.3006 54.2357C91.213 56.991 88.0765 63.7963 89.9387 70.2088L95.746 90.2053C98.1718 98.5579 107.444 102.823 115.373 99.2344L119.6 97.3216C127.627 93.6885 130.484 83.7352 125.604 76.4044L114.039 59.031Z" fill="#9C9C9C"/>
<path d="M35.3613 75.1756C35.3613 63.1371 45.1297 53.3779 57.1797 53.3779H90.9521C103.002 53.3779 112.771 63.1371 112.771 75.1756V87.202C112.771 99.2405 103.002 109 90.9521 109H57.1797C45.1297 109 35.3613 99.2405 35.3613 87.202V75.1756Z" fill="#C3C3C3"/>
<path d="M114.693 67.8263C114.693 87.0603 96.5036 102.653 74.0658 102.653C51.628 102.653 33.4385 87.0603 33.4385 67.8263C33.4385 48.5923 51.628 33 74.0658 33C96.5036 33 114.693 48.5923 114.693 67.8263Z" fill="#C3C3C3"/>
<path d="M27.9611 59.031C31.6098 53.5499 38.6975 51.5193 44.6992 54.2357C50.7869 56.991 53.9234 63.7963 52.0611 70.2088L46.2538 90.2053C43.8281 98.5579 34.5559 102.823 26.6263 99.2344L22.4 97.3216C14.3731 93.6885 11.5161 83.7352 16.3961 76.4044L27.9611 59.031Z" fill="url(#paint0_linear_179_61)"/>
<path d="M114.039 59.031C110.39 53.5499 103.302 51.5193 97.3006 54.2357C91.213 56.991 88.0765 63.7963 89.9387 70.2088L95.746 90.2053C98.1718 98.5579 107.444 102.823 115.373 99.2344L119.6 97.3216C127.627 93.6885 130.484 83.7352 125.604 76.4044L114.039 59.031Z" fill="#9C9C9C"/>
<path d="M35.3613 75.1756C35.3613 63.1371 45.1297 53.3779 57.1797 53.3779H90.9521C103.002 53.3779 112.771 63.1371 112.771 75.1756V87.202C112.771 99.2405 103.002 109 90.9521 109H57.1797C45.1297 109 35.3613 99.2405 35.3613 87.202V75.1756Z" fill="#C3C3C3"/>
<path d="M114.693 67.8263C114.693 87.0603 96.5036 102.653 74.0658 102.653C51.628 102.653 33.4385 87.0603 33.4385 67.8263C33.4385 48.5923 51.628 33 74.0658 33C96.5036 33 114.693 48.5923 114.693 67.8263Z" fill="#C3C3C3"/>
<path d="M27.9611 59.031C31.6098 53.5499 38.6975 51.5193 44.6992 54.2357C50.7869 56.991 53.9234 63.7963 52.0611 70.2088L46.2538 90.2053C43.8281 98.5579 34.5559 102.823 26.6263 99.2344L22.4 97.3216C14.3731 93.6885 11.5161 83.7352 16.3961 76.4044L27.9611 59.031Z" fill="url(#paint1_linear_179_61)"/>
<path d="M119.6 97.3216L115.373 99.2344C107.444 102.823 98.1717 98.5579 95.7459 90.2053L89.9386 70.2088C88.0764 63.7963 91.2129 56.991 97.3005 54.2357C103.302 51.5193 110.39 53.5499 114.039 59.031L125.604 76.4044C130.484 83.7352 127.627 93.6885 119.6 97.3216ZM57.1799 109H90.9523C103.002 109 112.771 99.2406 112.771 87.2021V75.1757C112.771 63.1372 103.002 53.378 90.9523 53.378H57.1799C45.1299 53.378 35.3615 63.1372 35.3615 75.1757V87.2021C35.3615 99.2406 45.1299 109 57.1799 109ZM114.693 67.8263C114.693 87.0603 96.5039 102.653 74.0661 102.653C51.6283 102.653 33.4388 87.0603 33.4388 67.8263C33.4388 48.5923 51.6283 33 74.0661 33C96.5039 33 114.693 48.5923 114.693 67.8263ZM22.4 97.3216L26.6263 99.2344C34.5559 102.823 43.8281 98.5579 46.2538 90.2053L52.0611 70.2088C53.9234 63.7963 50.7869 56.991 44.6992 54.2357C38.6975 51.5193 31.6098 53.5499 27.9611 59.031L16.3961 76.4044C11.5161 83.7352 14.3731 93.6885 22.4 97.3216Z" stroke="#302727" stroke-width="12"/>
<path d="M114.039 59.031C110.39 53.5499 103.302 51.5193 97.3006 54.2357C91.213 56.991 88.0765 63.7963 89.9387 70.2088L95.746 90.2053C98.1718 98.5579 107.444 102.823 115.373 99.2344L119.6 97.3216C127.627 93.6885 130.484 83.7352 125.604 76.4044L114.039 59.031Z" fill="#9C9C9C"/>
<path d="M35.3613 75.1756C35.3613 63.1371 45.1297 53.3779 57.1797 53.3779H90.9521C103.002 53.3779 112.771 63.1371 112.771 75.1756V87.202C112.771 99.2405 103.002 109 90.9521 109H57.1797C45.1297 109 35.3613 99.2405 35.3613 87.202V75.1756Z" fill="#C3C3C3"/>
<path d="M114.693 67.8263C114.693 87.0603 96.5036 102.653 74.0658 102.653C51.628 102.653 33.4385 87.0603 33.4385 67.8263C33.4385 48.5923 51.628 33 74.0658 33C96.5036 33 114.693 48.5923 114.693 67.8263Z" fill="#C3C3C3"/>
<path d="M27.9611 59.031C31.6098 53.5499 38.6975 51.5193 44.6992 54.2357C50.7869 56.991 53.9234 63.7963 52.0611 70.2088L46.2538 90.2053C43.8281 98.5579 34.5559 102.823 26.6263 99.2344L22.4 97.3216C14.3731 93.6885 11.5161 83.7352 16.3961 76.4044L27.9611 59.031Z" fill="url(#paint2_linear_179_61)"/>
<path d="M114.039 59.031C110.39 53.5499 103.302 51.5193 97.3006 54.2357C91.213 56.991 88.0765 63.7963 89.9387 70.2088L95.746 90.2053C98.1718 98.5579 107.444 102.823 115.373 99.2344L119.6 97.3216C127.627 93.6885 130.484 83.7352 125.604 76.4044L114.039 59.031Z" fill="#9C9C9C"/>
<path d="M35.3613 75.1756C35.3613 63.1371 45.1297 53.3779 57.1797 53.3779H90.9521C103.002 53.3779 112.771 63.1371 112.771 75.1756V87.202C112.771 99.2405 103.002 109 90.9521 109H57.1797C45.1297 109 35.3613 99.2405 35.3613 87.202V75.1756Z" fill="#C3C3C3"/>
<path d="M114.693 67.8263C114.693 87.0603 96.5036 102.653 74.0658 102.653C51.628 102.653 33.4385 87.0603 33.4385 67.8263C33.4385 48.5923 51.628 33 74.0658 33C96.5036 33 114.693 48.5923 114.693 67.8263Z" fill="#C3C3C3"/>
<path d="M27.9611 59.031C31.6098 53.5499 38.6975 51.5193 44.6992 54.2357C50.7869 56.991 53.9234 63.7963 52.0611 70.2088L46.2538 90.2053C43.8281 98.5579 34.5559 102.823 26.6263 99.2344L22.4 97.3216C14.3731 93.6885 11.5161 83.7352 16.3961 76.4044L27.9611 59.031Z" fill="url(#paint3_linear_179_61)"/>
<mask id="mask0_179_61" style="mask-type:alpha" maskUnits="userSpaceOnUse" x="53" y="65" width="28" height="28">
<path d="M67.2879 92.471C74.6379 92.471 80.5963 86.5127 80.5963 79.1626C80.5963 71.8126 74.6379 65.8542 67.2879 65.8542C59.9379 65.8542 53.9795 71.8126 53.9795 79.1626C53.9795 86.5127 59.9379 92.471 67.2879 92.471Z" fill="white"/>
</mask>
<g mask="url(#mask0_179_61)">
<path d="M67.2879 92.471C74.6379 92.471 80.5963 86.5127 80.5963 79.1626C80.5963 71.8126 74.6379 65.8542 67.2879 65.8542C59.9379 65.8542 53.9795 71.8126 53.9795 79.1626C53.9795 86.5127 59.9379 92.471 67.2879 92.471Z" fill="white"/>
<path d="M65.2 90.2342C72.55 90.2342 78.5084 84.2759 78.5084 76.9258C78.5084 69.5758 72.55 63.6174 65.2 63.6174C57.85 63.6174 51.8916 69.5758 51.8916 76.9258C51.8916 84.2759 57.85 90.2342 65.2 90.2342Z" fill="#302727"/>
</g>
<mask id="mask1_179_61" style="mask-type:alpha" maskUnits="userSpaceOnUse" x="84" y="65" width="28" height="28">
<path d="M98.1727 92.471C105.523 92.471 111.481 86.5127 111.481 79.1626C111.481 71.8126 105.523 65.8542 98.1727 65.8542C90.8226 65.8542 84.8643 71.8126 84.8643 79.1626C84.8643 86.5127 90.8226 92.471 98.1727 92.471Z" fill="white"/>
</mask>
<g mask="url(#mask1_179_61)">
<path d="M98.1727 92.471C105.523 92.471 111.481 86.5127 111.481 79.1626C111.481 71.8126 105.523 65.8542 98.1727 65.8542C90.8226 65.8542 84.8643 71.8126 84.8643 79.1626C84.8643 86.5127 90.8226 92.471 98.1727 92.471Z" fill="white"/>
<path d="M96.0848 90.2342C103.435 90.2342 109.393 84.2759 109.393 76.9258C109.393 69.5758 103.435 63.6174 96.0848 63.6174C88.7347 63.6174 82.7764 69.5758 82.7764 76.9258C82.7764 84.2759 88.7347 90.2342 96.0848 90.2342Z" fill="#302727"/>
</g>
<path d="M87.1235 89.2225C87.6472 89.5617 88.0157 90.2503 87.9995 91.0536C87.965 92.75 85.875 94 85.5 94C85.125 94 83.0348 92.75 83.0005 91.0536C82.9843 90.2503 83.3528 89.562 83.8765 89.2225C84.3665 88.9056 84.982 88.9036 85.5 89.3717C86.018 88.9036 86.6335 88.9053 87.1235 89.2225Z" fill="#302727"/>
<defs>
<linearGradient id="paint0_linear_179_61" x1="44.3789" y1="54.0907" x2="24.4023" y2="98.2278" gradientUnits="userSpaceOnUse">
<stop offset="0.39" stop-color="#C3C3C3"/>
<stop offset="1" stop-color="#E0E0E0"/>
</linearGradient>
<linearGradient id="paint1_linear_179_61" x1="44.3789" y1="54.0907" x2="24.4023" y2="98.2278" gradientUnits="userSpaceOnUse">
<stop offset="0.39" stop-color="#C3C3C3"/>
<stop offset="1" stop-color="#E0E0E0"/>
</linearGradient>
<linearGradient id="paint2_linear_179_61" x1="44.3789" y1="54.0907" x2="24.4023" y2="98.2278" gradientUnits="userSpaceOnUse">
<stop offset="0.39" stop-color="#C3C3C3"/>
<stop offset="1" stop-color="#E0E0E0"/>
</linearGradient>
<linearGradient id="paint3_linear_179_61" x1="44.3789" y1="54.0907" x2="24.4023" y2="98.2278" gradientUnits="userSpaceOnUse">
<stop offset="0.39" stop-color="#C3C3C3"/>
<stop offset="1" stop-color="#E0E0E0"/>
</linearGradient>
</defs>
</svg>
